<svg width="30" height="30" viewBox="0 0 30 30" fill="none" xmlns="http://www.w3.org/2000/svg">
<ellipse cx="14.7059" cy="16.1111" rx="14.7059" ry="13.8889" fill="#4C0C7E"/>
<path d="M8.476 7.126C9.004 7.126 9.466 7.24333 9.862 7.478C10.258 7.71267 10.456 8.16733 10.456 8.842C10.456 9.502 10.258 9.95667 9.862 10.206C9.466 10.4407 9.004 10.558 8.476 10.558C7.91867 10.558 7.442 10.4407 7.046 10.206C6.66467 9.95667 6.474 9.502 6.474 8.842C6.474 8.16733 6.66467 7.71267 7.046 7.478C7.442 7.24333 7.91867 7.126 8.476 7.126ZM10.302 11.922V24H6.606V11.922H10.302ZM20.696 11.702C21.972 11.702 22.9986 12.054 23.776 12.758C24.568 13.4473 24.964 14.5693 24.964 16.124V24H21.268V17.158C21.268 16.322 21.1286 15.6913 20.85 15.266C20.5713 14.8407 20.1313 14.628 19.53 14.628C18.6353 14.628 18.0266 14.9653 17.704 15.64C17.3813 16.3 17.22 17.2533 17.22 18.5V24H13.502V11.922H16.318L16.824 13.484H17C17.3813 12.8973 17.8946 12.4573 18.54 12.164C19.1853 11.856 19.904 11.702 20.696 11.702Z" fill="#C5E7E0"/>
</svg>
