<svg width="40" height="37" viewBox="0 0 40 37" fill="none" xmlns="http://www.w3.org/2000/svg">
<path d="M38.5 18.0556C38.5 27.7157 30.0303 35.6111 19.5 35.6111C8.96966 35.6111 0.5 27.7157 0.5 18.0556C0.5 8.39543 8.96966 0.5 19.5 0.5C30.0303 0.5 38.5 8.39543 38.5 18.0556Z" fill="#C5E7E0" stroke="#4C0C7E"/>
<path d="M9.68636 32.6579C8.56212 32.0714 8 31.3137 8 30.385C8 29.4563 8.4888 28.0266 9.4664 26.0958C10.444 24.1406 11.7515 21.9043 13.389 19.387C11.9226 19.2893 10.1263 19.2404 8 19.2404C8.58656 17.6518 10.0041 16.8575 12.2526 16.8575C12.7414 16.8575 13.6456 16.9308 14.9654 17.0774C17.7027 13.1182 20.2567 9.7821 22.6273 7.06926C24.998 4.35642 26.5744 3 27.3565 3C27.9919 3 28.8229 3.47658 29.8494 4.42974C29.3606 4.79634 28.6396 6.32384 27.6864 9.01224C26.7577 11.6762 25.9267 14.609 25.1935 17.8106C24.4848 20.9878 24.1304 23.554 24.1304 25.5092C24.1304 26.4868 24.2282 27.22 24.4237 27.7088C24.6436 28.1732 24.9736 28.4054 25.4135 28.4054C26.0245 28.4054 26.7455 27.9655 27.5764 27.0856C28.4074 26.1813 29.3117 24.8005 30.2893 22.943L30.9492 23.6396C30.1671 25.717 29.165 27.3911 27.943 28.662C26.721 29.9084 25.4502 30.5317 24.1304 30.5317C23.0062 30.5317 22.1874 30.0429 21.6742 29.0653C21.1609 28.0877 20.9043 26.6824 20.9043 24.8494C20.9043 23.6518 21.0632 22.1365 21.3809 20.3035C20.1345 20.108 18.387 19.8758 16.1385 19.607C13.8656 23.6396 11.7149 27.9899 9.68636 32.6579ZM21.7475 18.5072C22.1874 16.4542 22.7618 14.3279 23.4705 12.1283C24.1793 9.92874 24.9003 7.96132 25.6335 6.22608C24.5581 7.08148 23.2994 8.499 21.8575 10.4786C20.4155 12.4583 18.9002 14.8045 17.3116 17.5174L20.0611 18.1039C20.7943 18.2994 21.3565 18.4339 21.7475 18.5072Z" fill="#4C0C7E"/>
</svg>
