<svg width="29" height="26" viewBox="0 0 29 26" fill="none" xmlns="http://www.w3.org/2000/svg">
<path d="M20.6473 9.23437C20.0893 8.22991 18.6942 7.39286 17.5223 7.39286H10.9933C9.82143 7.39286 8.42634 8.22991 7.8683 9.23437L2.00893 19.5022C1.84152 19.7254 1.78571 20.1161 1.78571 20.3951V23.4643C1.78571 24.4687 2.56696 25.25 3.57143 25.25H25C25.9487 25.25 26.7857 24.4687 26.7857 23.4643V20.3951C26.7857 20.1161 26.6741 19.7254 26.5067 19.5022L20.6473 9.23437ZM14.2857 19.8929C12.0536 19.8929 10.2679 18.1071 10.2679 15.875C10.2679 13.6987 12.0536 11.8571 14.2857 11.8571C16.4621 11.8571 18.3036 13.6987 18.3036 15.875C18.3036 18.1071 16.4621 19.8929 14.2857 19.8929ZM28.2366 5.32812C24.3304 2.09152 19.3638 0.25 14.2857 0.25C9.15179 0.25 4.18527 2.09152 0.279018 5.32812C0.111607 5.49554 0 5.83036 0 6.05357V9.17857C0 9.6808 0.390625 10.0714 0.892857 10.0714H4.79911C5.07812 10.0714 5.41295 9.90402 5.58036 9.625L7.14286 5.60714C9.3192 4.65848 11.7746 4.26786 14.2857 4.26786C16.7411 4.26786 19.1964 4.65848 21.4286 5.60714L22.9353 9.625C23.1027 9.90402 23.4375 10.0714 23.7165 10.0714H27.6786C28.125 10.0714 28.5714 9.6808 28.5714 9.17857V6.05357C28.5714 5.83036 28.404 5.49554 28.2366 5.32812Z" fill="#61298C"/>
</svg>
