<svg fill="none" xmlns="http://www.w3.org/2000/svg" viewBox="0 0 50 44"><path d="M1.417 41.917c-.5-1.5-.75-2.7-.75-3.6 0-1 .15-2.25.45-3.75 6.7 0 10.05-3.45 10.05-10.35 0-2.5-1.3-3.9-3.9-4.2-3.8-.3-5.7-2.75-5.7-7.35 0-3.5.8-6.15 2.4-7.95 1.7-1.9 4.7-2.85 9-2.85 5.9 0 8.85 4 8.85 12s-1.6 14.7-4.8 20.1c-3.2 5.3-8.4 7.95-15.6 7.95zm27.15 0c-.5-1.5-.75-2.7-.75-3.6 0-1 .15-2.25.45-3.75 6.7 0 10.05-3.45 10.05-10.35 0-2.5-1.3-3.9-3.9-4.2-3.8-.3-5.7-2.75-5.7-7.35 0-3.5.8-6.15 2.4-7.95 1.7-1.9 4.7-2.85 9-2.85 5.9 0 8.85 4 8.85 12s-1.6 14.7-4.8 20.1c-3.2 5.3-8.4 7.95-15.6 7.95z" fill="#61298C"/></svg>