<svg width="24" height="21" viewBox="0 0 24 21" fill="none" xmlns="http://www.w3.org/2000/svg">
<path d="M0.68 20.12C0.44 19.4 0.32 18.824 0.32 18.392C0.32 17.912 0.392 17.312 0.536 16.592C3.752 16.592 5.36 14.936 5.36 11.624C5.36 10.424 4.736 9.752 3.488 9.608C1.664 9.464 0.752 8.288 0.752 6.08C0.752 4.4 1.136 3.128 1.904 2.264C2.72 1.352 4.16 0.895997 6.224 0.895997C9.056 0.895997 10.472 2.816 10.472 6.656C10.472 10.496 9.704 13.712 8.168 16.304C6.632 18.848 4.136 20.12 0.68 20.12ZM13.712 20.12C13.472 19.4 13.352 18.824 13.352 18.392C13.352 17.912 13.424 17.312 13.568 16.592C16.784 16.592 18.392 14.936 18.392 11.624C18.392 10.424 17.768 9.752 16.52 9.608C14.696 9.464 13.784 8.288 13.784 6.08C13.784 4.4 14.168 3.128 14.936 2.264C15.752 1.352 17.192 0.895997 19.256 0.895997C22.088 0.895997 23.504 2.816 23.504 6.656C23.504 10.496 22.736 13.712 21.2 16.304C19.664 18.848 17.168 20.12 13.712 20.12Z" fill="#61298C"/>
</svg>
